Saaiyaan - Heroine (2012) 1080p [FULL SONG] by Rahat Fateh Ali Khan [VENOM]

**********
ViDEO
**********
Format                                   : AVC
Format/Info                              : Advanced Video Codec
Format profile                           : High@L4.0
Format settings, CABAC                   : Yes
Format settings, ReFrames                : 1 frame
Format settings, GOP                     : M=1, N=48
Codec ID                                 : avc1
Codec ID/Info                            : Advanced Video Coding
Duration                                 : 3mn 24s
Bit rate                                 : 2 879 Kbps
Maximum bit rate                         : 6 816 Kbps
Width                                    : 1 920 pixels
Height                                   : 816 pixels
Display aspect ratio                     : 2.35:1
Frame rate mode                          : Constant
Frame rate                               : 24.000 fps
Color space                              : YUV
Chroma subsampling                       : 4:2:0
Bit depth                                : 8 bits
Scan type                                : Progressive
Bits/(Pixel*Frame)                       : 0.077
Stream size                              : 70.2 MiB (94%)

**********
AUDiO
**********
ID                                       : 2
Format                                   : AAC
Format/Info                              : Advanced Audio Codec
Format profile                           : LC
Codec ID                                 : 40
Duration                                 : 3mn 24s
Bit rate mode                            : Variable
Bit rate                                 : 192 Kbps
Maximum bit rate                         : 202 Kbps
Channel(s)                               : 2 channels
Channel positions                        : Front: L R
Sampling rate                            : 44.1 KHz
Compression mode                         : Lossy
Stream size                              : 4.69 MiB (6%)

************
SCREENS
************
 
http://imgbox.com/ace9wnnD 
http://imgbox.com/acx8sLvd 
http://imgbox.com/adnCT7Xf 
http://imgbox.com/abp1rnCB 
http://imgbox.com/adwhiUYQ